<svg width="25" height="24" viewBox="0 0 25 24" fill="none" xmlns="http://www.w3.org/2000/svg">
<path fill-rule="evenodd" clip-rule="evenodd" d="M5.21053 3.375H2.5V4.625H4.73715L7.54951 14.6176L7.67776 15.0732H8.15114H19.5146H19.977L20.1122 14.631L22.6043 6.48205L22.8513 5.67427H22.0066H8.15114V6.92427H21.1619L19.0521 13.8232H8.62452L5.81216 3.83068L5.68391 3.375H5.21053ZM9.92857 17.1964C9.32697 17.1964 8.83928 17.6841 8.83928 18.2857C8.83928 18.8873 9.32697 19.375 9.92857 19.375C10.5302 19.375 11.0179 18.8873 11.0179 18.2857C11.0179 17.6841 10.5302 17.1964 9.92857 17.1964ZM7.58928 18.2857C7.58928 16.9938 8.63661 15.9464 9.92857 15.9464C11.2205 15.9464 12.2679 16.9938 12.2679 18.2857C12.2679 19.5777 11.2205 20.625 9.92857 20.625C8.63661 20.625 7.58928 19.5777 7.58928 18.2857ZM17.9286 17.1964C17.327 17.1964 16.8393 17.6841 16.8393 18.2857C16.8393 18.8873 17.327 19.375 17.9286 19.375C18.5302 19.375 19.0179 18.8873 19.0179 18.2857C19.0179 17.6841 18.5302 17.1964 17.9286 17.1964ZM15.5893 18.2857C15.5893 16.9938 16.6366 15.9464 17.9286 15.9464C19.2205 15.9464 20.2679 16.9938 20.2679 18.2857C20.2679 19.5777 19.2205 20.625 17.9286 20.625C16.6366 20.625 15.5893 19.5777 15.5893 18.2857Z" fill="#161412"/>
</svg>
